<svg fill="#000000" viewBox="0 0 64 64" data-name="Layer 1" id="Layer_1" xmlns="http://www.w3.org/2000/svg"><g id="SVGRepo_bgCarrier" stroke-width="0"></g><g id="SVGRepo_tracerCarrier" stroke-linecap="round" stroke-linejoin="round"></g><g id="SVGRepo_iconCarrier"><path d="M50,20h-.61a1,1,0,0,1-.943-.667,9.486,9.486,0,0,0-17.573-.794,1,1,0,0,1-1.619.285A9.5,9.5,0,0,0,13,25.5V29a1,1,0,0,1-1,1H9A5,5,0,0,0,9,40h7.114a16.971,16.971,0,0,1,31.769-.008L50,40a10,10,0,0,0,0-20Zm6,13H54V31h2Zm-2-4a4,4,0,0,0-4-4V23a6.006,6.006,0,0,1,6,6Z"></path><path d="M32,31A15.021,15.021,0,0,0,17.033,45h2a13,13,0,0,1,25.924,0h2A15.021,15.021,0,0,0,32,31Z"></path><rect height="2" width="3" x="20" y="45"></rect><rect height="2" width="3" x="41" y="45"></rect><rect height="2.747" transform="translate(-19.938 28.631) rotate(-45)" width="2" x="23.591" y="37.01"></rect><rect height="2" transform="translate(-15.605 39.235) rotate(-45.007)" width="2.644" x="38.228" y="37.451"></rect><rect height="2.958" width="2" x="31" y="34"></rect><path d="M37.123,42.165,35.709,40.75,33.2,43.256a3.065,3.065,0,1,0,1.452,1.377Z"></path><rect height="2" width="2" x="21" y="51"></rect><rect height="2" width="2" x="25" y="51"></rect><rect height="2" width="2" x="29" y="51"></rect><rect height="2" width="2" x="33" y="51"></rect><rect height="2" width="2" x="37" y="51"></rect><rect height="2" width="2" x="41" y="51"></rect></g></svg>